<svg width="100" height="56" viewBox="0 0 383 216" xmlns="http://www.w3.org/2000/svg"><title>Go Monday</title><defs><linearGradient x1="0%" y1="50%" y2="50%" id="a"><stop stop-color="#00A09B" offset="0%"/><stop stop-color="#E0DD00" offset="100%"/></linearGradient></defs><path d="M1267.334 660.963c-6.6 1.903-10.418 8.826-8.525 15.463l4.014 14.08c-14.33-10.24-32.98-14.028-51.235-8.765-31.39 9.05-49.697 41.4-41.414 73.134l-65.555 18.9 5.46 19.146 46.117-13.297c-2.664 14.367-12.793 25.705-26.778 29.738-16.067 4.632-31.844.115-42.36-13.04-3.254-4.08-5.937-8.974-7.388-14.058-6.057-21.242 5.508-43.354 26.78-49.487 11.604-3.347 24.68-.963 33.892 7.064l16.415-15.513c-14.867-12.364-37.237-16.042-55.322-10.827-31.538 9.093-51.36 42.33-42.19 74.487 9.343 32.758 43.647 49.74 75.63 40.52 24.663-7.11 42.693-29.45 44.28-54.274 14.29 20.152 40.325 29.88 65.278 22.686 18.137-5.23 32.04-18.352 38.865-34.612l4.27 14.97c1.893 6.637 8.778 10.475 15.38 8.57l130.524-37.63c5.356-1.545 8.588-6.717 8.525-15.465l-1.562-108.694c-1.564-5.486-6.54-9.06-11.945-9.06-1.135 0-2.288.157-3.434.488l-157.726 45.475zm-76.727 88.94c-5.966-20.83 5.09-43.304 26.343-49.406 21.252-6.102 42.524 7.09 48.49 27.92 5.922 20.678-5.477 43.088-26.43 49.104-3.495 1.004-7.007 1.48-10.458 1.48-17.244 0-33.01-11.868-37.945-29.098m129.308-45.396l-8.23-28.848-.155.044-1.543 31.665-6 1.73-18.056-26.017-.102.03 8.23 28.85-7.085 2.04L1276 675.537l9.826-2.832 18.492 26.17.103-.03 1.78-32.013 9.827-2.832L1327 702.464l-7.085 2.042zm22.76-41.982c-7.357 2.136-11.184 10-9.12 17.29 2.05 7.24 9.503 11.774 16.756 9.668 7.255-2.105 11.2-9.95 9.15-17.186-2.065-7.29-9.428-11.908-16.785-9.772m10.065 33.65c-11.058 3.184-22.728-3.094-25.913-14.254-3.216-11.265 3.234-22.876 14.397-26.09 11.162-3.216 22.757 3.196 25.972 14.46 3.186 11.16-3.4 22.697-14.456 25.883m47.358-14.79l-23.928-23.152-.103.03 7.968 27.717-7.075 2.023-10.96-38.122 8.056-2.304 23.774 23.196.103-.03-7.967-27.717 7.074-2.023 10.96 38.122-7.902 2.26zm-81.998 41.15c-6.05-2.81-12.015-1.216-18.1.484l9.707 32.983 2.028-.566c4.617-1.29 8.404-2.57 11.868-5.97 4.234-4.134 5.298-10.552 3.674-16.072-1.344-4.567-4.707-8.788-9.177-10.86m12.004 34c-4.093 4.062-10.414 6.542-15.888 8.113l-11.7 3.355L1288 717.355l11.494-3.297c7.046-2.022 15.55-3.35 22.485-.08 6.776 3.24 11.896 9.993 13.956 17.18 2.47 8.623.683 18.913-5.832 25.374m24.37-43.532l-.14.038L1353 730l12-3.292L1354.475 713zm25.112 33.695l-9.226-11.563-18.276 5.22-1.67 14.675L1340 758l6.608-56.893 7.378-2.107L1390 743.722l-10.414 2.973zm22.826-26.39l5.394 18.966-9.44 2.73-5.394-18.966L1367 695.43l10.336-2.987 17.812 20.413 4.446-26.848L1410 683l-7.588 37.305zm23.276 5.49c1.218 4.246-1.238 8.676-5.484 9.893-4.245 1.218-8.674-1.237-9.892-5.483-1.218-4.246 1.238-8.675 5.483-9.893 4.247-1.218 8.675 1.237 9.893 5.483" transform="translate(-1057 -615)" fill="url(#a)" fill-rule="evenodd"/></svg>